<svg xmlns="http://www.w3.org/2000/svg" height="24px" viewBox="0 -960 960 960" width="24px" fill="#1f1f1f"><path d="M202.87-71.87q-37.78 0-64.39-26.61t-26.61-64.39v-554.26q0-37.78 26.61-64.39t64.39-26.61H240v-80h85.5v80h309v-80H720v80h37.13q37.78 0 64.39 26.61t26.61 64.39v554.26q0 37.78-26.61 64.39t-64.39 26.61H202.87Zm0-91h554.26V-560H202.87v397.13Zm0-477.13h554.26v-77.13H202.87V-640Zm0 0v-77.13V-640ZM480-398.09q-17.81 0-29.86-12.09-12.05-12.1-12.05-29.82t12.05-29.82q12.05-12.09 29.86-12.09t29.86 12.09q12.05 12.1 12.05 29.82t-12.05 29.82q-12.05 12.09-29.86 12.09Zm-189.82-12.09q-12.09-12.1-12.09-29.82t12.09-29.82q12.1-12.09 29.82-12.09t29.82 12.09q12.09 12.1 12.09 29.82t-12.09 29.82q-12.1 12.09-29.82 12.09t-29.82-12.09ZM640-398.09q-17.48 0-29.7-12.09-12.21-12.1-12.21-29.82t12.21-29.82q12.22-12.09 29.82-12.09t29.7 12.09q12.09 12.1 12.09 29.82t-12.05 29.82q-12.05 12.09-29.86 12.09Zm-160 160q-17.81 0-29.86-12.21-12.05-12.22-12.05-29.82t12.05-29.7q12.05-12.09 29.86-12.09t29.86 12.05q12.05 12.05 12.05 29.86 0 17.48-12.05 29.7-12.05 12.21-29.86 12.21ZM290.18-250.3q-12.09-12.22-12.09-29.82t12.09-29.7q12.1-12.09 29.82-12.09t29.82 12.05q12.09 12.05 12.09 29.86 0 17.48-12.09 29.7-12.1 12.21-29.82 12.21t-29.82-12.21ZM640-238.09q-17.48 0-29.7-12.21-12.21-12.22-12.21-29.82t12.21-29.7q12.22-12.09 29.82-12.09t29.7 12.05q12.09 12.05 12.09 29.86 0 17.48-12.05 29.7-12.05 12.21-29.86 12.21Z"/></svg>